<svg viewBox="0 0 512 512" xmlns="http://www.w3.org/2000/svg">
  <path fill="#3a76f0" d="M256 0C118.6 0 6.5 107.4.2 242.5l42 19.5c2.5-6.8 5.4-13.3 8.6-19.7L20.2 228.2C29.5 119.4 133.5 34 256 34s226.5 85.4 235.8 194.2l-30.6 14.1c3.2 6.4 6.1 12.9 8.6 19.7l42-19.5C505.5 107.4 393.4 0 256 0z"/>
  <path fill="#3a76f0" d="M256 68C152 68 68 152 68 256s84 188 188 188 188-84 188-188S360 68 256 68zm0 340c-84 0-152-68-152-152S172 104 256 104s152 68 152 152-68 152-152 152z"/>
  <path fill="#3a76f0" d="M256 504c-52 0-101-15-143-44l-38 38C119 528 186 544 256 544s137-16 181-46l-38-38c-42 29-91 44-143 44z" transform="translate(0 -38)"/>
  <circle fill="#3a76f0" cx="200" cy="224" r="22"/>
  <circle fill="#3a76f0" cx="312" cy="224" r="22"/>
  <path d="M200 296c0 0 24 40 56 40s56-40 56-40" fill="none" stroke="#3a76f0" stroke-width="18" stroke-linecap="round"/>
</svg>
